<?xml version="1.0" encoding="UTF-8" standalone="no"?>
<svg
   width="24px"
   height="24px"
   viewBox="0 0 24.00 24.00"
   fill="#ffffff"
   stroke="#ffffff"
   transform="rotate(0)"
   version="1.1"
   id="svg12"
   sodipodi:docname="br.svg"
   inkscape:version="1.3.2 (091e20e, 2023-11-25)"
   xmlns:inkscape="http://www.inkscape.org/namespaces/inkscape"
   xmlns:sodipodi="http://sodipodi.sourceforge.net/DTD/sodipodi-0.dtd"
   xmlns="http://www.w3.org/2000/svg"
   xmlns:svg="http://www.w3.org/2000/svg">
  <defs
     id="defs12">
    <rect
       x="-0.20338983"
       y="-0.91525424"
       width="24.20339"
       height="25.118644"
       id="rect1" />
  </defs>
  <sodipodi:namedview
     id="namedview12"
     pagecolor="#505050"
     bordercolor="#ffffff"
     borderopacity="1"
     inkscape:showpageshadow="0"
     inkscape:pageopacity="0"
     inkscape:pagecheckerboard="1"
     inkscape:deskcolor="#505050"
     inkscape:zoom="9.8333333"
     inkscape:cx="9.5084746"
     inkscape:cy="16.779661"
     inkscape:window-width="1800"
     inkscape:window-height="1005"
     inkscape:window-x="0"
     inkscape:window-y="44"
     inkscape:window-maximized="0"
     inkscape:current-layer="svg12" />
  <path
     style="font-size:12px;font-family:Sans;-inkscape-font-specification:'Sans, @wght=327,wdth=93.3';font-variation-settings:'wdth' 93.3, 'wght' 327;white-space:pre;fill:#000000;stroke-width:1.233"
     d="m 3.204875,1.4344866 q 1.5,0 2.22,0.492 0.732,0.492 0.732,1.596 0,0.504 -0.18,0.912 -0.18,0.408 -0.54,0.672 -0.348,0.264 -0.852,0.36 v 0.048 q 0.576,0.096 0.984,0.348 0.408,0.252 0.612,0.672 0.216,0.42 0.216,1.032 0,0.804 -0.348,1.344 -0.348,0.54 -0.984,0.816 -0.636,0.2760004 -1.5,0.2760004 h -2.64 V 1.4344866 Z m 0.144,3.744 q 1.068,0 1.524,-0.396 0.468,-0.396 0.468,-1.188 0,-0.78 -0.516,-1.128 -0.504,-0.348 -1.62,-0.348 h -1.488 v 3.06 z m -1.632,0.684 v 3.456 h 1.752 q 1.08,0 1.584,-0.456 0.504,-0.468 0.504,-1.344 0,-0.564 -0.24,-0.924 -0.228,-0.372 -0.708,-0.552 -0.48,-0.18 -1.236,-0.18 z m 8.471991,-4.428 q 0.996,0 1.656,0.252 0.66,0.24 0.984,0.768 0.336,0.516 0.336,1.356 0,0.648 -0.228,1.116 -0.228,0.456 -0.612,0.756 -0.384,0.288 -0.876,0.444 l 2.232,3.8760004 h -0.924 l -2.052,-3.6600004 H 8.9408664 v 3.6600004 h -0.792 V 1.4344866 Z m -0.048,0.696 H 8.9408664 v 3.54 h 1.3799996 q 0.984,0 1.5,-0.468 0.528,-0.468 0.528,-1.368 0,-0.624 -0.24,-0.996 -0.24,-0.372 -0.732,-0.54 -0.48,-0.168 -1.236,-0.168 z"
     id="text1"
     transform="matrix(1.5641636,0,0,1.6011129,0.15904664,2.9186226)"
     aria-label="BR" />
</svg>
