<?xml version="1.0" encoding="UTF-8" standalone="no"?>
<svg
   width="24px"
   height="24px"
   viewBox="0 0 24.00 24.00"
   fill="#ffffff"
   stroke="#ffffff"
   transform="rotate(0)"
   version="1.1"
   id="svg12"
   sodipodi:docname="en.svg"
   inkscape:version="1.3.2 (091e20e, 2023-11-25)"
   xmlns:inkscape="http://www.inkscape.org/namespaces/inkscape"
   xmlns:sodipodi="http://sodipodi.sourceforge.net/DTD/sodipodi-0.dtd"
   xmlns="http://www.w3.org/2000/svg"
   xmlns:svg="http://www.w3.org/2000/svg">
  <defs
     id="defs12">
    <rect
       x="-0.20338983"
       y="-0.91525424"
       width="24.20339"
       height="25.118644"
       id="rect1" />
  </defs>
  <sodipodi:namedview
     id="namedview12"
     pagecolor="#505050"
     bordercolor="#ffffff"
     borderopacity="1"
     inkscape:showpageshadow="0"
     inkscape:pageopacity="0"
     inkscape:pagecheckerboard="1"
     inkscape:deskcolor="#505050"
     inkscape:zoom="9.8333333"
     inkscape:cx="9.5084746"
     inkscape:cy="16.779661"
     inkscape:window-width="1800"
     inkscape:window-height="1005"
     inkscape:window-x="0"
     inkscape:window-y="44"
     inkscape:window-maximized="0"
     inkscape:current-layer="svg12" />
  <path
     style="font-size:12px;font-family:'Noto Sans';-inkscape-font-specification:'Noto Sans, @wght=327';font-variation-settings:'wght' 327;white-space:pre;fill:#000000;stroke-width:4.86803"
     d="M 20.925535,50.840116 H 7.390769 V 18.514071 h 13.534766 v 2.58065 H 10.514176 V 32.639737 H 20.3306 v 2.58065 h -9.816424 v 13.039077 h 10.411359 z m 33.564279,0 H 50.771471 L 37.782063,23.132077 H 37.63333 q 0.09915,0.99604 0.09915,1.992081 0.04958,0.996041 0.04958,1.992081 0.04958,0.996041 0.04958,2.08263 V 50.840116 H 34.856967 V 18.514071 h 3.767921 l 12.93983,27.391115 h 0.148734 q -0.04958,-1.267688 -0.09916,-2.354278 -0.04958,-1.131864 -0.09916,-2.127904 0,-1.041315 0,-1.810983 v -21.09795 h 2.974674 z"
     id="text1"
     aria-label="EN"
     transform="matrix(0.42105263,0,0,0.42105263,-1.2631579,-2.5263158)" />
</svg>
