<?xml version="1.0" encoding="UTF-8" standalone="no"?>
<svg
   width="24px"
   height="24px"
   viewBox="0 0 24.00 24.00"
   fill="#ffffff"
   stroke="#ffffff"
   transform="rotate(0)"
   version="1.1"
   id="svg12"
   sodipodi:docname="es.svg"
   inkscape:version="1.3.2 (091e20e, 2023-11-25)"
   xmlns:inkscape="http://www.inkscape.org/namespaces/inkscape"
   xmlns:sodipodi="http://sodipodi.sourceforge.net/DTD/sodipodi-0.dtd"
   xmlns="http://www.w3.org/2000/svg"
   xmlns:svg="http://www.w3.org/2000/svg">
  <defs
     id="defs12">
    <rect
       x="-0.20338983"
       y="-0.91525424"
       width="24.20339"
       height="25.118644"
       id="rect1" />
  </defs>
  <sodipodi:namedview
     id="namedview12"
     pagecolor="#505050"
     bordercolor="#ffffff"
     borderopacity="1"
     inkscape:showpageshadow="0"
     inkscape:pageopacity="0"
     inkscape:pagecheckerboard="1"
     inkscape:deskcolor="#505050"
     inkscape:zoom="9.8333333"
     inkscape:cx="9.5084746"
     inkscape:cy="16.779661"
     inkscape:window-width="1800"
     inkscape:window-height="1033"
     inkscape:window-x="0"
     inkscape:window-y="44"
     inkscape:window-maximized="0"
     inkscape:current-layer="svg12" />
  <path
     style="font-size:12px;font-family:'Noto Sans';-inkscape-font-specification:'Noto Sans, @wght=327';font-variation-settings:'wght' 327;white-space:pre;display:inline;fill:#000000;stroke-width:1.233"
     d="m 3.972875,10.002487 h -3.276 V 1.4344866 h 3.276 v 0.684 h -2.52 v 3.06 h 2.376 v 0.684 h -2.376 v 3.456 h 2.52 z m 6.84001,-2.3040004 q 0,0.732 -0.264,1.284 -0.264,0.54 -0.7559997,0.84 -0.492,0.3000004 -1.164,0.3000004 -0.312,0 -0.612,-0.036 -0.3,-0.036 -0.576,-0.1200004 -0.276,-0.084 -0.528,-0.192 v -0.792 q 0.384,0.204 0.828,0.312 0.456,0.108 0.864,0.108 0.468,0 0.792,-0.204 0.324,-0.216 0.492,-0.588 0.1679997,-0.384 0.1679997,-0.852 0,-0.48 -0.1439997,-0.78 -0.144,-0.312 -0.456,-0.552 -0.312,-0.24 -0.816,-0.504 -0.36,-0.192 -0.672,-0.396 -0.312,-0.216 -0.528,-0.48 -0.216,-0.276 -0.348,-0.636 -0.12,-0.372 -0.12,-0.876 0,-0.684 0.276,-1.188 0.276,-0.504 0.756,-0.768 0.492,-0.276 1.116,-0.264 0.468,0 0.8879997,0.12 0.42,0.12 0.72,0.264 l -0.252,0.684 q -0.348,-0.192 -0.6959997,-0.276 -0.348,-0.084 -0.648,-0.084 -0.444,0 -0.756,0.192 -0.3,0.18 -0.468,0.516 -0.168,0.324 -0.168,0.768 0,0.504 0.156,0.816 0.156,0.312 0.468,0.54 0.312,0.228 0.768,0.48 0.564,0.288 0.9359997,0.612 0.372,0.312 0.552,0.732 0.192,0.42 0.192,1.02 z"
     id="text1"
     transform="matrix(1.7988088,0,0,1.584797,1.7999418,3.1136198)"
     aria-label="ES" />
</svg>
